<svg width="15" height="16" viewBox="0 0 15 16" fill="none" xmlns="http://www.w3.org/2000/svg">
<path fill-rule="evenodd" clip-rule="evenodd" d="M0 8C0 3.86 3.3525 0.5 7.4925 0.5C11.64 0.5 15 3.86 15 8C15 12.14 11.64 15.5 7.4925 15.5C3.3525 15.5 0 12.14 0 8ZM10.4775 5H12.69C11.97 3.7625 10.8225 2.8025 9.4425 2.33C9.8925 3.1625 10.2375 4.0625 10.4775 5ZM7.5 2.03C8.1225 2.93 8.61 3.9275 8.9325 5H6.0675C6.39 3.9275 6.8775 2.93 7.5 2.03ZM1.5 8C1.5 8.5175 1.575 9.02 1.695 9.5H4.23C4.17 9.005 4.125 8.51 4.125 8C4.125 7.49 4.17 6.995 4.23 6.5H1.695C1.575 6.98 1.5 7.4825 1.5 8ZM2.31 11H4.5225C4.7625 11.9375 5.1075 12.8375 5.5575 13.67C4.1775 13.1975 3.03 12.245 2.31 11ZM2.31 5H4.5225C4.7625 4.0625 5.1075 3.1625 5.5575 2.33C4.1775 2.8025 3.03 3.755 2.31 5ZM7.5 13.97C6.8775 13.07 6.39 12.0725 6.0675 11H8.9325C8.61 12.0725 8.1225 13.07 7.5 13.97ZM5.625 8C5.625 8.51 5.6775 9.005 5.745 9.5H9.255C9.3225 9.005 9.375 8.51 9.375 8C9.375 7.49 9.3225 6.9875 9.255 6.5H5.745C5.6775 6.9875 5.625 7.49 5.625 8ZM9.4425 13.67C9.8925 12.8375 10.2375 11.9375 10.4775 11H12.69C11.97 12.2375 10.8225 13.1975 9.4425 13.67ZM10.875 8C10.875 8.51 10.83 9.005 10.77 9.5H13.305C13.425 9.02 13.5 8.5175 13.5 8C13.5 7.4825 13.425 6.98 13.305 6.5H10.77C10.83 6.995 10.875 7.49 10.875 8Z" fill="#322F35"/>
</svg>
