<svg width="45" height="44" viewBox="0 0 45 44" fill="none" xmlns="http://www.w3.org/2000/svg">
<g clip-path="url(#clip0_56871_4733)">
<circle cx="22.1069" cy="22" r="22" fill="#2196F3"/>
<path d="M19.197 25.3156C19.197 25.9051 19.4427 26.3964 19.9339 26.7894C20.4415 27.1824 21.031 27.3789 21.7024 27.3789C22.6522 27.3789 23.4955 27.0268 24.2323 26.3227C24.9856 25.6186 25.3622 24.7916 25.3622 23.8419C24.6581 23.2851 23.6756 23.0068 22.4147 23.0068C21.4977 23.0068 20.7281 23.2278 20.1059 23.67C19.5 24.1121 19.197 24.6606 19.197 25.3156ZM22.12 16.5714C23.7902 16.5714 25.1084 17.0217 26.0745 17.9224C27.0406 18.8066 27.5237 20.0265 27.5237 21.5822V29H25.3622V27.3298H25.264C24.3306 28.7053 23.0861 29.393 21.5305 29.393C20.2041 29.393 19.0906 29 18.19 28.214C17.3057 27.428 16.8636 26.4455 16.8636 25.2665C16.8636 24.022 17.3303 23.0313 18.2637 22.2945C19.2134 21.5576 20.4743 21.1892 22.0463 21.1892C23.389 21.1892 24.4943 21.4348 25.3622 21.926V21.4102C25.3622 20.6242 25.0511 19.961 24.4288 19.4207C23.8066 18.8639 23.0779 18.5855 22.2428 18.5855C20.9819 18.5855 19.983 19.1177 19.2462 20.1821L17.2566 18.9294C18.3537 17.3574 19.9749 16.5714 22.12 16.5714Z" fill="#FEF7FF"/>
</g>
<defs>
<clipPath id="clip0_56871_4733">
<rect width="44" height="44" fill="white" transform="translate(0.106934)"/>
</clipPath>
</defs>
</svg>
